HIERARCHY
ROOT Hips
{
	OFFSET 0.000000 0.000000 0.000000 
	CHANNELS 6 Xposition Yposition Zposition Zrotation Yrotation Xrotation
	JOINT LeftUpLeg
	{
		OFFSET 1.363060 -1.794630 0.839290 
		CHANNELS 3 Zrotation Yrotation Xrotation
		JOINT LeftLeg
		{
			OFFSET 2.448110 -6.726130 0.000000 
			CHANNELS 3 Zrotation Yrotation Xrotation
			JOINT LeftFoot
			{
				OFFSET 2.562200 -7.039590 0.000000 
				CHANNELS 3 Zrotation Yrotation Xrotation
				JOINT LeftToeBase
				{
					OFFSET 0.157640 -0.433110 2.322550 
					CHANNELS 3 Zrotation Yrotation Xrotation
					End Site
					{
						OFFSET 0.000000 0.000000 0.000000 
					}
				}
			}
		}
	}
	JOINT RightUpLeg
	{
		OFFSET -1.305520 -1.794630 0.839290 
		CHANNELS 3 Zrotation Yrotation Xrotation
		JOINT RightLeg
		{
			OFFSET -2.542530 -6.985550 0.000000 
			CHANNELS 3 Zrotation Yrotation Xrotation
			JOINT RightFoot
			{
				OFFSET -2.568260 -7.056230 0.000000 
				CHANNELS 3 Zrotation Yrotation Xrotation
				JOINT RightToeBase
				{
					OFFSET -0.164730 -0.452590 2.363150 
					CHANNELS 3 Zrotation Yrotation Xrotation
					End Site
					{
						OFFSET 0.000000 0.000000 0.000000 
					}
				}
			}
		}
	}
	JOINT Spine
	{
		OFFSET 0.028270 2.035590 -0.193380 
		CHANNELS 3 Zrotation Yrotation Xrotation
		JOINT Spine1
		{
			OFFSET 0.056720 2.048850 -0.042750 
			CHANNELS 3 Zrotation Yrotation Xrotation
			JOINT Neck1
			{
				OFFSET -0.054170 1.746240 0.172020 
				CHANNELS 3 Zrotation Yrotation Xrotation
				JOINT Head
				{
					OFFSET 0.104070 1.761360 -0.123970 
					CHANNELS 3 Zrotation Yrotation Xrotation
					End Site
					{
						OFFSET 0.000000 0.000000 0.000000 
					}
				}
			}
			JOINT LeftArm
			{
				OFFSET 3.362410 1.200890 -0.311210 
				CHANNELS 3 Zrotation Yrotation Xrotation
				JOINT LeftForeArm
				{
					OFFSET 4.983000 -0.000000 -0.000000 
					CHANNELS 3 Zrotation Yrotation Xrotation
					JOINT LeftHand
					{
						OFFSET 3.483560 -0.000000 -0.000000 
						CHANNELS 3 Zrotation Yrotation Xrotation
						JOINT LeftHandIndex1
						{
							OFFSET 0.715260 -0.000000 -0.000000 
							CHANNELS 3 Zrotation Yrotation Xrotation
							End Site
							{
								OFFSET 0.000000 0.000000 0.000000 
							}
						}
					}
				}
			}
			JOINT RightArm
			{
				OFFSET -3.136600 1.374050 -0.404650 
				CHANNELS 3 Zrotation Yrotation Xrotation
				JOINT RightForeArm
				{
					OFFSET -5.241900 -0.000000 -0.000000 
					CHANNELS 3 Zrotation Yrotation Xrotation
					JOINT RightHand
					{
						OFFSET -3.444170 -0.000000 -0.000000 
						CHANNELS 3 Zrotation Yrotation Xrotation
						JOINT RightHandIndex1
						{
							OFFSET -0.622530 -0.000000 -0.000000 
							CHANNELS 3 Zrotation Yrotation Xrotation
							End Site
							{
								OFFSET 0.000000 0.000000 0.000000 
							}
						}
					}
				}
			}
		}
	}
}
MOTION
Frames: 18
Frame Time: 0.041667
-0.723110 18.252747 3.826105 -0.199108 -2.882613 3.831644 -14.182876 -8.768868 -16.533202 2.123274 8.566442 28.068052 -0.153094 3.660072 -11.209180 8.570600 -16.523300 -54.592900 18.496690 6.101407 -8.243087 -0.768429 -3.299694 13.680571 -0.070738 -3.491988 -13.100017 -0.192300 2.823900 -7.789000 -6.420788 2.024771 39.112157 3.625881 1.201765 -19.756927 3.054688 -2.599354 -14.309170 0.871600 -1.705000 -1.084200 -84.062583 14.374408 31.324503 46.469154 -49.577228 -19.775587 0.562587 0.658856 -6.012354 -7.125000 0.000000 0.000000 24.982504 44.535583 12.979295 -153.112606 34.913781 -109.879162 -1.506909 1.453156 -38.530388 7.125000 0.000000 0.000000 
-0.720082 18.251380 3.833433 -0.185910 -2.874479 3.808960 -14.172980 -8.927752 -16.433319 2.114852 8.570452 28.053980 -0.163837 3.748696 -11.317091 8.550800 -16.509800 -54.523300 18.507664 5.930180 -8.228632 -0.770040 -3.288587 13.666545 -0.072634 -3.411959 -12.996268 -0.202100 2.894400 -7.985000 -6.734144 2.106758 38.918696 3.609302 1.203676 -19.930320 3.337856 -2.641136 -14.504252 0.963900 -1.738300 -1.104300 -84.030832 14.445627 31.335594 46.435650 -49.563691 -19.745511 0.559571 0.655310 -5.957615 -7.125000 0.000000 0.000000 24.554692 44.611609 12.357739 -153.147830 34.926515 -109.899714 -1.483399 1.457954 -38.159463 7.125000 0.000000 0.000000 
-0.752324 18.255679 3.860985 -0.224520 -2.747423 3.785192 -14.067397 -8.720834 -16.286199 2.117834 8.531962 27.997962 -0.120859 3.516455 -11.259565 8.575700 -16.526800 -54.610800 18.626147 6.167819 -7.920521 -0.755699 -3.279805 13.616332 -0.093673 -3.515313 -13.397147 -0.192400 2.824800 -7.791500 -6.291691 1.980328 38.877156 3.825569 1.259294 -19.798692 3.255827 -2.610652 -15.019663 0.961100 -1.727000 -1.214500 -84.057337 14.499677 31.232842 46.380445 -49.514402 -19.695397 0.557958 0.650685 -5.854248 -7.125000 0.000000 0.000000 24.018730 44.733290 11.756354 -153.149408 34.927676 -109.911498 -1.455915 1.476390 -37.887667 7.125000 0.000000 0.000000 
-0.765514 18.257046 3.878279 -0.247157 -2.762787 3.749589 -14.020764 -8.590882 -16.138244 2.103758 8.493814 27.899847 -0.113444 3.477525 -11.261852 8.583800 -16.532300 -54.639500 18.692703 6.240046 -7.736359 -0.746552 -3.261971 13.560111 -0.099624 -3.551058 -13.522498 -0.192300 2.824200 -7.789800 -6.234048 1.968645 38.735488 3.946578 1.291497 -19.789889 2.990012 -2.550529 -15.643890 0.888600 -1.698500 -1.372200 -84.066188 14.584747 31.149589 46.395571 -49.510496 -19.702158 0.554091 0.654180 -5.893691 -7.125000 0.000000 0.000000 23.591194 44.874876 11.246241 -153.148120 34.940712 -109.920110 -1.425972 1.502227 -37.684784 7.125000 0.000000 0.000000 
-0.769129 18.256460 3.890883 -0.282081 -2.765234 3.737323 -13.971751 -8.554331 -16.022064 2.080384 8.454731 27.771197 -0.124020 3.517968 -11.239357 8.588200 -16.535300 -54.654800 18.759831 6.141181 -7.654417 -0.740055 -3.236815 13.495371 -0.098121 -3.534104 -13.481331 -0.198800 2.871300 -7.920600 -6.348706 1.994242 38.562105 3.969920 1.297903 -19.868255 3.024969 -2.518578 -16.006931 0.903500 -1.689300 -1.447500 -84.091485 14.652061 31.054902 46.331488 -49.478114 -19.656526 0.551425 0.655802 -5.954251 -7.125000 0.000000 0.000000 23.214767 44.944447 10.716553 -153.196202 34.932599 -109.944019 -1.419483 1.509056 -37.597553 7.125000 0.000000 0.000000 
-0.772353 18.255776 3.906320 -0.265216 -2.711068 3.713124 -13.974792 -8.590594 -15.886607 2.065210 8.427866 27.688282 -0.129021 3.544109 -11.252227 8.596300 -16.540800 -54.683100 18.770584 5.970373 -7.563034 -0.732540 -3.207008 13.416305 -0.096606 -3.504614 -13.421275 -0.202600 2.898000 -7.994900 -6.436034 2.016218 38.400033 4.016523 1.315461 -19.935565 3.200634 -2.530236 -16.185973 0.969300 -1.702500 -1.466300 -84.189667 14.711321 30.926065 46.179912 -49.404602 -19.551308 0.552398 0.650892 -5.905970 -7.125000 0.000000 0.000000 22.788534 44.971327 10.261189 -153.264309 34.911407 -109.982366 -1.409837 1.517150 -37.394454 7.125000 0.000000 0.000000 
-0.776262 18.256069 3.922930 -0.197692 -2.675517 3.632465 -14.020805 -8.653202 -15.679427 2.053541 8.409399 27.633827 -0.132395 3.589723 -11.342656 8.599700 -16.543100 -54.695200 18.740687 5.826659 -7.387821 -0.724346 -3.173686 13.333965 -0.099426 -3.477074 -13.413715 -0.210600 2.954700 -8.152700 -6.659538 2.085495 38.238271 4.111022 1.343990 -19.971731 3.159072 -2.576595 -16.503441 0.965200 -1.729200 -1.532000 -84.257121 14.727324 30.810077 46.045577 -49.334540 -19.453249 0.552102 0.645314 -5.820255 -7.125000 0.000000 0.000000 22.306297 45.010334 9.758807 -153.287718 34.922829 -109.994259 -1.393858 1.533682 -37.148931 7.125000 0.000000 0.000000 
-0.772256 18.255679 3.934947 -0.175072 -2.677646 3.583898 -14.026883 -8.800867 -15.503913 2.033866 8.394032 27.562279 -0.152206 3.726027 -11.465502 8.595300 -16.540100 -54.679700 18.745163 5.644216 -7.275937 -0.715862 -3.129782 13.231259 -0.094312 -3.441813 -13.308300 -0.225200 3.054800 -8.431300 -7.065322 2.195627 38.034158 4.126730 1.344377 -20.011552 3.186025 -2.585176 -16.941868 0.975800 -1.745100 -1.639000 -84.271048 14.751994 30.723515 45.970951 -49.292559 -19.390162 0.548730 0.642498 -5.762889 -7.125000 0.000000 0.000000 21.779459 45.016261 9.157767 -153.291574 34.961117 -109.984317 -1.386807 1.547367 -37.124684 7.125000 0.000000 0.000000 
-0.761410 18.255288 3.943936 -0.141313 -2.702699 3.625264 -14.055256 -9.026460 -15.399183 2.004138 8.374966 27.455622 -0.183033 3.920876 -11.602859 8.568900 -16.522200 -54.587000 18.718359 5.392282 -7.301642 -0.704882 -3.073352 13.089449 -0.074901 -3.412996 -13.053226 -0.247500 3.201600 -8.840400 -7.561931 2.323844 37.707288 4.132020 1.345838 -20.120341 3.391441 -2.554173 -17.294743 1.043200 -1.747600 -1.729200 -84.279371 14.930048 30.700016 45.958296 -49.280927 -19.371344 0.545440 0.640928 -5.738688 -7.125000 0.000000 0.000000 21.345212 44.954368 8.729863 -153.346745 34.967114 -110.006042 -1.381544 1.564417 -37.229070 7.125000 0.000000 0.000000 
-0.768543 18.258610 3.963575 -0.107651 -2.592017 3.655158 -14.057586 -9.092290 -15.271063 1.984169 8.337738 27.340460 -0.176583 3.898570 -11.635427 8.561600 -16.517200 -54.561300 18.722888 5.286595 -7.163795 -0.684416 -3.014570 12.920314 -0.066170 -3.492597 -13.091065 -0.261200 3.288100 -9.082000 -7.639389 2.306763 37.450181 4.257065 1.363858 -20.187410 3.457127 -2.538313 -17.545470 1.080300 -1.744400 -1.777900 -84.309415 15.128628 30.679508 45.926493 -49.253379 -19.341885 0.543004 0.638953 -5.731354 -7.125000 0.000000 0.000000 20.912435 44.920578 8.370148 -153.435771 34.934632 -110.054122 -1.377678 1.585025 -37.308402 7.125000 0.000000 0.000000 
-0.790820 18.263690 3.992105 -0.106880 -2.351045 3.647162 -13.999292 -8.977643 -15.130995 1.974441 8.286021 27.221105 -0.141340 3.685736 -11.517588 8.600600 -16.543700 -54.698300 18.793751 5.283773 -6.850755 -0.656573 -2.950876 12.727648 -0.074066 -3.628353 -13.404755 -0.254300 3.244500 -8.960300 -7.384273 2.175264 37.319443 4.427265 1.376806 -20.142776 3.425010 -2.533958 -17.824993 1.094400 -1.740400 -1.823500 -84.362171 15.234124 30.610093 45.856946 -49.201196 -19.283312 0.540740 0.634867 -5.694123 -7.125000 0.000000 0.000000 20.425579 44.878800 7.954130 -153.489164 34.917442 -110.083001 -1.371714 1.596277 -37.223268 7.125000 0.000000 0.000000 
-0.802739 18.266035 4.015554 -0.118555 -2.235530 3.630281 -13.943416 -8.905951 -14.971781 1.954094 8.237728 27.081254 -0.132792 3.622772 -11.460401 8.639600 -16.570100 -54.835200 18.864988 5.235789 -6.586282 -0.631873 -2.879475 12.528116 -0.075634 -3.707948 -13.558035 -0.246200 3.193100 -8.816800 -7.430310 2.150464 37.106208 4.534463 1.386137 -20.135208 3.370561 -2.546777 -18.114676 1.089500 -1.748200 -1.883700 -84.379732 15.370266 30.541829 45.826450 -49.170793 -19.251567 0.538721 0.631289 -5.662713 -7.125000 0.000000 0.000000 20.078556 44.805100 7.620520 -153.498872 34.939997 -110.082390 -1.365386 1.591555 -37.078770 7.125000 0.000000 0.000000 
-0.804987 18.266231 4.034508 -0.147476 -2.248616 3.580029 -13.889529 -8.926514 -14.754760 1.926721 8.199728 26.947920 -0.147652 3.717052 -11.534225 8.652800 -16.579000 -54.881500 18.940533 5.147972 -6.347941 -0.612789 -2.811490 12.352095 -0.066639 -3.757239 -13.547875 -0.257900 3.267600 -9.024500 -7.733956 2.219071 36.823101 4.590020 1.394550 -20.195558 3.233253 -2.549698 -18.393526 1.048400 -1.748900 -1.950200 -84.369560 15.575454 30.464867 45.841716 -49.168903 -19.258171 0.537754 0.630694 -5.653522 -7.125000 0.000000 0.000000 19.884174 44.762127 7.378655 -153.557965 34.927608 -110.104573 -1.374322 1.597790 -37.098345 7.125000 0.000000 0.000000 
-0.806843 18.266524 4.053756 -0.106588 -2.230632 3.523579 -13.904791 -8.996379 -14.539244 1.906264 8.171652 26.851424 -0.156326 3.788671 -11.624889 8.641800 -16.571600 -54.842800 18.940248 5.032595 -6.120858 -0.596058 -2.749660 12.192348 -0.058672 -3.796267 -13.531746 -0.275000 3.372900 -9.318600 -8.071697 2.293693 36.584780 4.684352 1.410153 -20.204505 3.208270 -2.537372 -18.599699 1.043000 -1.744100 -1.990600 -84.395219 15.719490 30.354812 45.805991 -49.143007 -19.230689 0.537902 0.628979 -5.608049 -7.125000 0.000000 0.000000 19.621185 44.710390 7.076634 -153.650989 34.882659 -110.149220 -1.383573 1.614982 -37.190488 7.125000 0.000000 0.000000 
-0.809481 18.267794 4.073395 -0.036388 -2.156894 3.492829 -13.950528 -9.049319 -14.373514 1.892542 8.147142 26.775521 -0.155257 3.794659 -11.658251 8.636000 -16.567700 -54.822500 18.900528 4.959946 -5.918464 -0.579223 -2.693042 12.041801 -0.054227 -3.850822 -13.578461 -0.276700 3.383200 -9.347500 -8.343557 2.338686 36.422558 4.791229 1.419850 -20.134007 3.292496 -2.553298 -18.773192 1.070800 -1.758100 -2.013300 -84.429130 15.730194 30.251275 45.671873 -49.065779 -19.131214 0.538153 0.625429 -5.537595 -7.125000 0.000000 0.000000 19.182016 44.668074 6.633285 -153.657940 34.905012 -110.148512 -1.371813 1.623412 -37.205232 7.125000 0.000000 0.000000 
-0.812608 18.268869 4.094890 0.009671 -2.077876 3.482801 -13.972916 -9.051781 -14.244311 1.879901 8.124329 26.702067 -0.154610 3.791476 -11.658184 8.662100 -16.585300 -54.914200 18.887173 4.885281 -5.729260 -0.564470 -2.643584 11.909821 -0.059608 -3.861922 -13.661450 -0.264900 3.310800 -9.145200 -8.584038 2.371440 36.222918 4.892741 1.427135 -20.073044 3.237412 -2.594016 -19.003035 1.059600 -1.779500 -2.053300 -84.462632 15.758980 30.159112 45.522259 -48.978435 -19.019818 0.537657 0.622961 -5.457914 -7.125000 0.000000 0.000000 18.742154 44.680018 6.224179 -153.621535 34.968937 -110.119722 -1.358696 1.624086 -37.133602 7.125000 0.000000 0.000000 
-0.817297 18.269553 4.118729 0.016089 -2.005729 3.511259 -13.950136 -9.041668 -14.156435 1.869001 8.105768 26.635985 -0.147270 3.758328 -11.660727 8.682000 -16.598700 -54.983700 18.916152 4.787625 -5.566203 -0.549154 -2.593298 11.769189 -0.070589 -3.832629 -13.737478 -0.253700 3.240900 -8.950100 -8.732790 2.380249 35.924152 4.997382 1.439773 -20.044771 3.002900 -2.630594 -19.317670 1.004800 -1.791300 -2.123900 -84.540351 15.903994 30.020432 45.411403 -48.906304 -18.933211 0.537378 0.617819 -5.335644 -7.125000 0.000000 0.000000 18.384687 44.678144 5.944326 -153.633250 35.002030 -110.113614 -1.361227 1.626600 -37.135517 7.125000 0.000000 0.000000 
-0.822085 18.271018 4.140908 -0.047803 -1.925586 3.576096 -13.855593 -9.040529 -14.117994 1.860137 8.090751 26.576707 -0.134902 3.695255 -11.645752 8.677600 -16.595700 -54.968400 19.016454 4.707941 -5.438051 -0.530247 -2.536149 11.604068 -0.063587 -3.893255 -13.762283 -0.262500 3.296000 -9.104000 -8.746296 2.348202 35.598846 5.052954 1.438967 -20.035075 2.706330 -2.660238 -19.653082 0.933700 -1.795200 -2.197400 -84.606896 16.097850 29.872757 45.353605 -48.858664 -18.879441 0.535760 0.611443 -5.209225 -7.125000 0.000000 0.000000 18.108841 44.635129 5.689262 -153.702285 34.991692 -110.137657 -1.374583 1.631406 -37.194155 7.125000 0.000000 0.000000 
